<mxfile host="app.diagrams.net" agent="Mozilla/5.0 (Windows NT 10.0; Win64; x64) AppleWebKit/537.36 (KHTML, like Gecko) Chrome/141.0.0.0 Safari/537.36" version="28.2.7">
  <diagram name="Page-1" id="2YBvvXClWsGukQMizWep">
    <mxGraphModel grid="1" page="1" gridSize="10" guides="1" tooltips="1" connect="1" arrows="1" fold="1" pageScale="1" pageWidth="850" pageHeight="1100" math="0" shadow="0">
      <root>
        <mxCell id="0" />
        <mxCell id="1" parent="0" />
        <mxCell id="7vWF8yH3gESonzv8qwvb-23" value=":GUI" style="shape=umlLifeline;perimeter=lifelinePerimeter;whiteSpace=wrap;html=1;container=0;dropTarget=0;collapsible=0;recursiveResize=0;outlineConnect=0;portConstraint=eastwest;newEdgeStyle={&quot;edgeStyle&quot;:&quot;elbowEdgeStyle&quot;,&quot;elbow&quot;:&quot;vertical&quot;,&quot;curved&quot;:0,&quot;rounded&quot;:0};fillColor=#9999FF;" vertex="1" parent="1">
          <mxGeometry x="640" y="280" width="100" height="530" as="geometry" />
        </mxCell>
        <mxCell id="7vWF8yH3gESonzv8qwvb-24" value="" style="html=1;points=[];perimeter=orthogonalPerimeter;outlineConnect=0;targetShapes=umlLifeline;portConstraint=eastwest;newEdgeStyle={&quot;edgeStyle&quot;:&quot;elbowEdgeStyle&quot;,&quot;elbow&quot;:&quot;vertical&quot;,&quot;curved&quot;:0,&quot;rounded&quot;:0};" vertex="1" parent="7vWF8yH3gESonzv8qwvb-23">
          <mxGeometry x="45" y="70" width="10" height="440" as="geometry" />
        </mxCell>
        <mxCell id="7vWF8yH3gESonzv8qwvb-25" value="SelectSeats()" style="html=1;verticalAlign=bottom;endArrow=block;edgeStyle=elbowEdgeStyle;elbow=vertical;curved=0;rounded=0;" edge="1" parent="1">
          <mxGeometry x="-0.0414" relative="1" as="geometry">
            <mxPoint x="690" y="400" as="sourcePoint" />
            <Array as="points">
              <mxPoint x="830" y="400" />
              <mxPoint x="785" y="390" />
            </Array>
            <mxPoint x="919.5" y="400" as="targetPoint" />
            <mxPoint as="offset" />
          </mxGeometry>
        </mxCell>
        <mxCell id="7vWF8yH3gESonzv8qwvb-26" value="Customer" style="shape=umlActor;verticalLabelPosition=bottom;verticalAlign=top;html=1;outlineConnect=0;fillColor=#9999FF;" vertex="1" parent="1">
          <mxGeometry x="360" y="360" width="30" height="60" as="geometry" />
        </mxCell>
        <mxCell id="7vWF8yH3gESonzv8qwvb-27" value="Select one or more seats and click select button" style="html=1;verticalAlign=bottom;startArrow=oval;endArrow=block;startSize=8;edgeStyle=elbowEdgeStyle;elbow=horizontal;curved=0;rounded=0;exitX=1;exitY=0.3333333333333333;exitDx=0;exitDy=0;exitPerimeter=0;" edge="1" parent="1" source="7vWF8yH3gESonzv8qwvb-26">
          <mxGeometry relative="1" as="geometry">
            <mxPoint x="640" y="380" as="sourcePoint" />
            <mxPoint x="680" y="380" as="targetPoint" />
            <Array as="points">
              <mxPoint x="660" y="380" />
            </Array>
          </mxGeometry>
        </mxCell>
        <mxCell id="7vWF8yH3gESonzv8qwvb-28" value=":ControllerClass" style="shape=umlLifeline;perimeter=lifelinePerimeter;whiteSpace=wrap;html=1;container=0;dropTarget=0;collapsible=0;recursiveResize=0;outlineConnect=0;portConstraint=eastwest;newEdgeStyle={&quot;edgeStyle&quot;:&quot;elbowEdgeStyle&quot;,&quot;elbow&quot;:&quot;vertical&quot;,&quot;curved&quot;:0,&quot;rounded&quot;:0};fillColor=#9999FF;" vertex="1" parent="1">
          <mxGeometry x="880" y="280" width="100" height="520" as="geometry" />
        </mxCell>
        <mxCell id="7vWF8yH3gESonzv8qwvb-29" value="" style="html=1;points=[];perimeter=orthogonalPerimeter;outlineConnect=0;targetShapes=umlLifeline;portConstraint=eastwest;newEdgeStyle={&quot;edgeStyle&quot;:&quot;elbowEdgeStyle&quot;,&quot;elbow&quot;:&quot;vertical&quot;,&quot;curved&quot;:0,&quot;rounded&quot;:0};" vertex="1" parent="7vWF8yH3gESonzv8qwvb-28">
          <mxGeometry x="45" y="110" width="10" height="400" as="geometry" />
        </mxCell>
        <mxCell id="7vWF8yH3gESonzv8qwvb-30" value=":Reservation" style="shape=umlLifeline;perimeter=lifelinePerimeter;whiteSpace=wrap;html=1;container=0;dropTarget=0;collapsible=0;recursiveResize=0;outlineConnect=0;portConstraint=eastwest;newEdgeStyle={&quot;edgeStyle&quot;:&quot;elbowEdgeStyle&quot;,&quot;elbow&quot;:&quot;vertical&quot;,&quot;curved&quot;:0,&quot;rounded&quot;:0};fillColor=#9999FF;" vertex="1" parent="1">
          <mxGeometry x="1040" y="280" width="100" height="520" as="geometry" />
        </mxCell>
        <mxCell id="7vWF8yH3gESonzv8qwvb-31" value="" style="html=1;points=[];perimeter=orthogonalPerimeter;outlineConnect=0;targetShapes=umlLifeline;portConstraint=eastwest;newEdgeStyle={&quot;edgeStyle&quot;:&quot;elbowEdgeStyle&quot;,&quot;elbow&quot;:&quot;vertical&quot;,&quot;curved&quot;:0,&quot;rounded&quot;:0};" vertex="1" parent="7vWF8yH3gESonzv8qwvb-30">
          <mxGeometry x="45" y="200" width="10" height="310" as="geometry" />
        </mxCell>
        <mxCell id="7vWF8yH3gESonzv8qwvb-32" value="SelectSeats()" style="html=1;verticalAlign=bottom;endArrow=block;edgeStyle=elbowEdgeStyle;elbow=vertical;curved=0;rounded=0;" edge="1" parent="1">
          <mxGeometry relative="1" as="geometry">
            <mxPoint x="940" y="490" as="sourcePoint" />
            <Array as="points">
              <mxPoint x="1070" y="490" />
              <mxPoint x="1025" y="480" />
            </Array>
            <mxPoint x="1080" y="490" as="targetPoint" />
            <mxPoint as="offset" />
          </mxGeometry>
        </mxCell>
        <mxCell id="7vWF8yH3gESonzv8qwvb-33" value=":Seat" style="shape=umlLifeline;perimeter=lifelinePerimeter;whiteSpace=wrap;html=1;container=0;dropTarget=0;collapsible=0;recursiveResize=0;outlineConnect=0;portConstraint=eastwest;newEdgeStyle={&quot;edgeStyle&quot;:&quot;elbowEdgeStyle&quot;,&quot;elbow&quot;:&quot;vertical&quot;,&quot;curved&quot;:0,&quot;rounded&quot;:0};fillColor=#9999FF;" vertex="1" parent="1">
          <mxGeometry x="1210" y="280" width="100" height="520" as="geometry" />
        </mxCell>
        <mxCell id="7vWF8yH3gESonzv8qwvb-34" value="" style="html=1;points=[];perimeter=orthogonalPerimeter;outlineConnect=0;targetShapes=umlLifeline;portConstraint=eastwest;newEdgeStyle={&quot;edgeStyle&quot;:&quot;elbowEdgeStyle&quot;,&quot;elbow&quot;:&quot;vertical&quot;,&quot;curved&quot;:0,&quot;rounded&quot;:0};" vertex="1" parent="7vWF8yH3gESonzv8qwvb-33">
          <mxGeometry x="45" y="250" width="10" height="230" as="geometry" />
        </mxCell>
        <mxCell id="7vWF8yH3gESonzv8qwvb-35" value="CheckAvailability()" style="html=1;verticalAlign=bottom;endArrow=block;edgeStyle=elbowEdgeStyle;elbow=vertical;curved=0;rounded=0;" edge="1" parent="1">
          <mxGeometry relative="1" as="geometry">
            <mxPoint x="1105" y="540" as="sourcePoint" />
            <Array as="points">
              <mxPoint x="1235" y="540" />
              <mxPoint x="1190" y="530" />
            </Array>
            <mxPoint x="1255" y="540" as="targetPoint" />
            <mxPoint as="offset" />
          </mxGeometry>
        </mxCell>
        <mxCell id="7vWF8yH3gESonzv8qwvb-36" value="Return Availability Status" style="html=1;verticalAlign=bottom;endArrow=open;dashed=1;endSize=8;edgeStyle=elbowEdgeStyle;elbow=vertical;curved=0;rounded=0;" edge="1" parent="1">
          <mxGeometry x="-0.0533" relative="1" as="geometry">
            <mxPoint x="1100" y="700" as="targetPoint" />
            <Array as="points">
              <mxPoint x="1215" y="700" />
            </Array>
            <mxPoint x="1250" y="700" as="sourcePoint" />
            <mxPoint as="offset" />
          </mxGeometry>
        </mxCell>
        <mxCell id="7vWF8yH3gESonzv8qwvb-37" value="ReserveSeats()" style="html=1;verticalAlign=bottom;endArrow=block;edgeStyle=elbowEdgeStyle;elbow=vertical;curved=0;rounded=0;" edge="1" parent="1">
          <mxGeometry relative="1" as="geometry">
            <mxPoint x="1100" y="720" as="sourcePoint" />
            <Array as="points">
              <mxPoint x="1230" y="720" />
              <mxPoint x="1185" y="710" />
            </Array>
            <mxPoint x="1250" y="720" as="targetPoint" />
            <mxPoint as="offset" />
          </mxGeometry>
        </mxCell>
        <mxCell id="7vWF8yH3gESonzv8qwvb-38" value="Display Error &quot;Seat not Available&quot;" style="html=1;verticalAlign=bottom;endArrow=open;dashed=1;endSize=8;edgeStyle=elbowEdgeStyle;elbow=vertical;curved=0;rounded=0;" edge="1" parent="1">
          <mxGeometry x="-0.6763" relative="1" as="geometry">
            <mxPoint x="700.0000000000002" y="610" as="targetPoint" />
            <Array as="points">
              <mxPoint x="1065.75" y="610" />
            </Array>
            <mxPoint x="1260.75" y="610" as="sourcePoint" />
            <mxPoint x="1" as="offset" />
          </mxGeometry>
        </mxCell>
        <mxCell id="7vWF8yH3gESonzv8qwvb-39" value="for every seat" style="shape=umlFrame;whiteSpace=wrap;html=1;pointerEvents=0;fillColor=#FFB570;" vertex="1" parent="1">
          <mxGeometry x="1010" y="510" width="340" height="160" as="geometry" />
        </mxCell>
        <mxCell id="7vWF8yH3gESonzv8qwvb-40" value="if seat not available" style="shape=umlFrame;whiteSpace=wrap;html=1;pointerEvents=0;fillColor=#FFB570;" vertex="1" parent="1">
          <mxGeometry x="1040" y="560" width="280" height="90" as="geometry" />
        </mxCell>
        <mxCell id="7vWF8yH3gESonzv8qwvb-41" value="if seats not selected" style="shape=umlFrame;whiteSpace=wrap;html=1;pointerEvents=0;width=80;height=40;fillColor=#67AB9F;" vertex="1" parent="1">
          <mxGeometry x="650" y="410" width="740" height="370" as="geometry" />
        </mxCell>
        <mxCell id="7vWF8yH3gESonzv8qwvb-42" value="Display Error &quot;Select atleast one seat&quot;" style="html=1;verticalAlign=bottom;endArrow=open;dashed=1;endSize=8;edgeStyle=elbowEdgeStyle;elbow=vertical;curved=0;rounded=0;" edge="1" parent="1">
          <mxGeometry x="0.2121" relative="1" as="geometry">
            <mxPoint x="700" y="460" as="targetPoint" />
            <Array as="points">
              <mxPoint x="920" y="460" />
            </Array>
            <mxPoint x="810" y="460" as="sourcePoint" />
            <mxPoint as="offset" />
          </mxGeometry>
        </mxCell>
        <mxCell id="7vWF8yH3gESonzv8qwvb-43" value="else" style="shape=umlFrame;whiteSpace=wrap;html=1;pointerEvents=0;fillColor=#67AB9F;" vertex="1" parent="1">
          <mxGeometry x="650" y="470" width="740" height="310" as="geometry" />
        </mxCell>
        <mxCell id="7vWF8yH3gESonzv8qwvb-44" value="Display &quot;Seats Successfully Reserved&quot;" style="html=1;verticalAlign=bottom;endArrow=open;dashed=1;endSize=8;edgeStyle=elbowEdgeStyle;elbow=vertical;curved=0;rounded=0;" edge="1" parent="1">
          <mxGeometry x="-0.0533" relative="1" as="geometry">
            <mxPoint x="700" y="750" as="targetPoint" />
            <Array as="points">
              <mxPoint x="1135" y="750" />
            </Array>
            <mxPoint x="1250" y="750" as="sourcePoint" />
            <mxPoint as="offset" />
          </mxGeometry>
        </mxCell>
      </root>
    </mxGraphModel>
  </diagram>
</mxfile>
